<?xml version="1.0" encoding="UTF-8"?>
<svg id="Livello_1" xmlns="http://www.w3.org/2000/svg" version="1.1" viewBox="0 0 1008.47 117.76">
  <!-- Generator: Adobe Illustrator 30.3.0, SVG Export Plug-In . SVG Version: 2.1.3 Build 182)  -->
  <defs>
    <style>
      .st0 {
        fill: #fff;
      }
    </style>
  </defs>
  <path class="st0" d="M95.27,83.93c5.65-.76,10.13-1.73,13.45-2.89,3.32-1.16,5.65-2.37,6.99-3.63,1.34-1.25,2.02-2.33,2.02-3.23,0-1.25-1.05-2.35-3.16-3.3-2.11-.94-5.16-1.79-9.15-2.56-3.99-.76-8.88-1.41-14.66-1.95-5.78-.54-12.35-1.03-19.7-1.48-4.3-.27-8.92-.54-13.85-.81-4.93-.27-9.8-.72-14.59-1.34-4.8-.63-9.39-1.48-13.79-2.56-4.39-1.08-8.27-2.56-11.63-4.44-3.36-1.88-6.03-4.28-8-7.2-1.97-2.91-2.96-6.48-2.96-10.69,0-5.11,1.16-9.44,3.5-12.98,2.33-3.54,5.38-6.46,9.15-8.74,3.77-2.29,8-4.03,12.71-5.25s9.39-2.11,14.05-2.69c4.66-.58,9.12-.92,13.38-1.01,4.26-.09,7.78-.13,10.56-.13,6.63,0,13.13.25,19.5.74,6.36.49,12.35,1.12,17.95,1.88,5.6.76,10.71,1.64,15.33,2.62,4.62.99,8.45,1.97,11.5,2.96l-6.46,20.44c-2.24-.72-5.31-1.48-9.21-2.29s-8.38-1.57-13.45-2.29c-5.07-.72-10.58-1.32-16.54-1.82-5.96-.49-12.17-.74-18.63-.74-7.44,0-13.67.16-18.69.47-5.02.32-9.03.79-12.04,1.41-3.01.63-5.16,1.46-6.46,2.49-1.3,1.03-1.95,2.22-1.95,3.56,0,1.17.78,2.15,2.35,2.96,1.57.81,3.63,1.5,6.19,2.08,2.56.58,5.4,1.05,8.54,1.41,3.14.36,6.27.65,9.41.87,3.14.22,6.12.4,8.94.54,2.82.13,5.13.25,6.93.34,12.28.63,22.71,1.57,31.27,2.82,8.56,1.26,15.53,2.98,20.91,5.18,5.38,2.2,9.3,4.93,11.77,8.2,2.47,3.27,3.7,7.24,3.7,11.9s-1.08,9.1-3.23,13.05c-2.15,3.95-5.78,7.35-10.89,10.22-5.11,2.87-11.95,5.11-20.51,6.72-8.56,1.61-19.26,2.42-32.08,2.42-9.06,0-17.51-.29-25.35-.87-7.85-.58-14.79-1.28-20.85-2.08-6.05-.81-11.07-1.66-15.06-2.56-3.99-.9-6.7-1.66-8.14-2.29l4.57-21.92c6.81,2.06,13.16,3.68,19.03,4.84,5.87,1.17,12.73,2.24,20.58,3.23,7.84.99,16.25,1.48,25.22,1.48s15.87-.38,21.52-1.14Z"/>
  <path class="st0" d="M234.33,10.37c6.63,1.39,12.33,3.25,17.08,5.58,4.75,2.33,8.7,5.09,11.83,8.27,3.14,3.18,5.6,6.57,7.4,10.15,1.79,3.59,3.05,7.31,3.77,11.16.72,3.86,1.08,7.62,1.08,11.3s-.36,7.42-1.08,11.23c-.72,3.81-1.97,7.51-3.77,11.1-1.79,3.59-4.26,6.97-7.4,10.15-3.14,3.18-7.08,5.94-11.83,8.27-4.75,2.33-10.45,4.19-17.08,5.58-6.64,1.39-14.39,2.08-23.27,2.08s-16.63-.7-23.27-2.08c-6.64-1.39-12.35-3.25-17.15-5.58-4.8-2.33-8.74-5.09-11.83-8.27-3.09-3.18-5.56-6.57-7.4-10.15-1.84-3.58-3.12-7.28-3.83-11.1-.72-3.81-1.08-7.55-1.08-11.23,0-5.56.87-11.21,2.62-16.95,1.75-5.74,4.98-10.96,9.68-15.67,4.71-4.71,11.27-8.54,19.7-11.5,8.43-2.96,19.28-4.44,32.55-4.44,8.88,0,16.63.7,23.27,2.08ZM248.32,46.28c-.9-3.18-2.74-5.89-5.51-8.14-2.78-2.24-6.68-3.99-11.7-5.25-5.02-1.25-11.7-1.88-20.04-1.88s-15.04.63-20.11,1.88c-5.07,1.26-8.97,3-11.7,5.25-2.74,2.24-4.57,4.96-5.51,8.14-.94,3.18-1.41,6.7-1.41,10.56s.47,7.38,1.41,10.56c.94,3.18,2.78,5.9,5.51,8.14,2.73,2.24,6.63,3.97,11.7,5.18,5.06,1.21,11.77,1.82,20.11,1.82s15.02-.61,20.04-1.82c5.02-1.21,8.92-2.94,11.7-5.18,2.78-2.24,4.62-4.95,5.51-8.14.9-3.18,1.34-6.7,1.34-10.56s-.45-7.37-1.34-10.56Z"/>
  <path class="st0" d="M401.23,95.43c-.27.09-1.75.65-4.44,1.68-2.69,1.03-6.34,2.15-10.96,3.36-4.62,1.21-10.02,2.31-16.21,3.3s-12.91,1.48-20.17,1.48c-9.86,0-18.27-.67-25.22-2.02-6.95-1.34-12.78-3.09-17.48-5.25s-8.45-4.59-11.23-7.33c-2.78-2.73-4.89-5.49-6.32-8.27-1.44-2.78-2.35-5.42-2.76-7.93-.4-2.51-.61-4.66-.61-6.46v-21.85c0-4.35-.02-8.7-.07-13.05-.05-4.35-.07-8.29-.07-11.83v-12.17l21.38-.13v2.89c0,1.84.02,4.24.07,7.2.04,2.96.07,6.28.07,9.95s.02,7.4.07,11.16c.04,3.77.07,7.4.07,10.89v9.01c0,5.2,1.21,9.41,3.63,12.64,2.42,3.23,5.6,5.76,9.55,7.6,3.94,1.84,8.45,3.09,13.52,3.77,5.06.67,10.2,1.01,15.4,1.01,5.83,0,11.41-.45,16.74-1.34,5.33-.9,10.04-1.88,14.12-2.96,4.08-1.08,8.58-2.56,13.52-4.44l7.4,19.1Z"/>
  <path class="st0" d="M512.32,9.56c6.54,2.2,12.19,5.18,16.95,8.94,4.75,3.77,8.7,8.09,11.83,12.98,3.14,4.89,5.67,10.04,7.6,15.47,1.93,5.43,3.34,10.92,4.24,16.47.9,5.56,1.46,10.85,1.68,15.87.22,5.02.22,9.59,0,13.72-.22,4.12-.47,7.49-.74,10.09l-21.38-.81c-.18-5.74-1.46-10.78-3.83-15.13-2.38-4.35-5.67-7.82-9.88-10.42-3.68-2.33-8.23-3.97-13.65-4.91-5.43-.94-11.16-1.28-17.21-1.01-6.05.27-12.17,1.19-18.36,2.76-6.19,1.57-11.93,3.74-17.21,6.52l-6.72-18.42c7.17-3.94,14.79-6.88,22.86-8.81,8.07-1.93,15.96-2.94,23.67-3.03,7.71-.09,14.88.7,21.52,2.35,6.63,1.66,12.1,4.19,16.41,7.6-.09-1.79-.92-4.46-2.49-8-1.57-3.54-3.99-7.1-7.26-10.69-3.27-3.58-7.44-6.7-12.51-9.35-5.07-2.64-11.23-3.97-18.49-3.97-15.42,0-27.7,4.71-36.85,14.12-3.32,3.32-6.12,6.99-8.41,11.03-2.29,4.03-4.22,8.16-5.78,12.37-1.57,4.22-2.8,8.34-3.7,12.37-.9,4.03-1.57,7.71-2.02,11.03-.45,3.32-.74,6.19-.87,8.61-.13,2.42-.2,4.03-.2,4.84v.81l-21.38.13V12.59h21.38v23.54c2.33-3.68,5.18-7.28,8.54-10.83,3.36-3.54,7.4-6.72,12.1-9.55,4.71-2.82,10.13-5.11,16.27-6.86,6.14-1.75,13.11-2.62,20.91-2.62,8.79,0,16.45,1.1,23,3.3Z"/>
  <path class="st0" d="M668.73,71.02c-4.13.32-8.7.25-13.72-.2,4.12,1.97,8.49,3.7,13.11,5.18,4.62,1.48,9.3,2.67,14.05,3.56,4.75.9,9.44,1.53,14.05,1.88,4.62.36,8.94.45,12.98.27v21.38c-10.94.36-20.85-.36-29.72-2.15-8.88-1.79-16.79-4.15-23.74-7.06-6.95-2.91-13-6.16-18.16-9.75-5.16-3.58-9.46-7.04-12.91-10.36-3.45-3.32-6.17-6.23-8.14-8.74-1.97-2.51-3.23-4.17-3.77-4.98l13.31-15.33c3.14,1.7,6.27,3.03,9.41,3.97,3.14.94,7.06,1.75,11.77,2.42,4.71.67,10.24.87,16.61.61,4.57-.18,8.41-.81,11.5-1.88,3.09-1.08,5.54-2.33,7.33-3.77,1.79-1.43,3.07-2.98,3.83-4.64.76-1.66,1.14-3.2,1.14-4.64,0-1.08-.34-2.24-1.01-3.5-.67-1.25-1.79-2.42-3.36-3.5-1.57-1.08-3.59-1.95-6.05-2.62-2.47-.67-5.54-1.01-9.21-1.01-13.9,0-26.56,3.12-37.99,9.35-11.43,6.23-20.96,15.62-28.58,28.18-2.87,4.75-5.2,9.41-6.99,13.99-1.79,4.57-3.18,8.65-4.17,12.24-.99,3.59-1.84,7.62-2.56,12.1l-21.38-1.08V6.81h21.38v41.42c2.96-4.48,6.93-9.26,11.9-14.32,4.98-5.06,10.91-9.77,17.82-14.12,6.9-4.35,14.79-7.96,23.67-10.83,8.88-2.87,18.74-4.3,29.59-4.3,7.08,0,13.2.87,18.36,2.62,5.15,1.75,9.41,4.08,12.78,6.99,3.36,2.91,5.85,6.25,7.46,10.02,1.61,3.77,2.42,7.62,2.42,11.57,0,3.5-.63,6.99-1.88,10.49-1.26,3.5-3.25,6.75-5.98,9.75-2.74,3-6.25,5.72-10.56,8.14-4.3,2.42-9.55,4.3-15.74,5.65-1.79.45-4.75.83-8.88,1.14Z"/>
  <path class="st0" d="M846.52,8.96l.81,55.14v.4c-.18,7.53-1.88,14.26-5.11,20.17s-7.82,10.92-13.79,15c-5.96,4.08-13.16,7.22-21.59,9.41-8.43,2.2-17.98,3.3-28.65,3.3-19.82,0-38.33-3.81-55.54-11.43l8.74-19.64c7.44,3.32,14.93,5.76,22.46,7.33,7.53,1.57,15.64,2.35,24.34,2.35,4.39,0,9.3-.31,14.73-.94,5.42-.63,10.56-1.88,15.4-3.77,4.84-1.88,8.92-4.59,12.24-8.14,3.32-3.54,5.06-8.22,5.25-14.05l-.13-14.66c-2.33,4.57-5.27,8.79-8.81,12.64-3.54,3.86-7.6,7.22-12.17,10.09-4.57,2.87-9.59,5.11-15.06,6.72-5.47,1.61-11.3,2.42-17.48,2.42s-11.7-.83-17.08-2.49c-5.38-1.66-10.24-4.01-14.59-7.06-4.35-3.05-8.07-6.72-11.16-11.03-3.09-4.3-5.31-9.05-6.66-14.26-.9-3.5-1.48-7.35-1.75-11.57-.27-4.21-.38-8.2-.34-11.97.04-3.77.18-7.04.4-9.82.22-2.78.38-4.48.47-5.11l10.76,1.08,10.62,1.21c-.09,1.44-.22,3.43-.4,5.98-.18,2.56-.29,5.31-.34,8.27-.05,2.96.02,5.9.2,8.81.18,2.91.54,5.45,1.08,7.6.81,2.87,2.08,5.47,3.83,7.8,1.75,2.33,3.85,4.3,6.32,5.92,2.46,1.61,5.29,2.87,8.47,3.77,3.18.9,6.57,1.34,10.15,1.34,6.54,0,12.44-1.3,17.69-3.9,5.25-2.6,9.88-5.85,13.92-9.75,4.03-3.9,7.51-8.16,10.42-12.78,2.91-4.62,5.29-8.9,7.13-12.84,1.84-3.94,3.2-7.24,4.1-9.88.9-2.64,1.35-4.01,1.35-4.1l19.77,2.42Z"/>
  <path class="st0" d="M961.77,9.56c6.54,2.2,12.19,5.18,16.95,8.94,4.75,3.77,8.7,8.09,11.84,12.98,3.14,4.89,5.67,10.04,7.6,15.47,1.93,5.43,3.34,10.92,4.24,16.47.9,5.56,1.46,10.85,1.68,15.87.22,5.02.22,9.59,0,13.72-.22,4.12-.47,7.49-.74,10.09l-21.38-.81c-.18-5.74-1.46-10.78-3.83-15.13-2.38-4.35-5.67-7.82-9.88-10.42-3.68-2.33-8.23-3.97-13.65-4.91-5.43-.94-11.16-1.28-17.21-1.01-6.05.27-12.17,1.19-18.36,2.76-6.19,1.57-11.93,3.74-17.21,6.52l-6.72-18.42c7.17-3.94,14.79-6.88,22.86-8.81,8.07-1.93,15.96-2.94,23.67-3.03,7.71-.09,14.88.7,21.52,2.35,6.63,1.66,12.1,4.19,16.41,7.6-.09-1.79-.92-4.46-2.49-8-1.57-3.54-3.99-7.1-7.26-10.69-3.27-3.58-7.44-6.7-12.51-9.35-5.07-2.64-11.23-3.97-18.49-3.97-15.42,0-27.7,4.71-36.85,14.12-3.32,3.32-6.12,6.99-8.41,11.03-2.29,4.03-4.22,8.16-5.78,12.37-1.57,4.22-2.8,8.34-3.7,12.37-.9,4.03-1.57,7.71-2.02,11.03-.45,3.32-.74,6.19-.87,8.61-.13,2.42-.2,4.03-.2,4.84v.81l-21.38.13V12.59h21.38v23.54c2.33-3.68,5.18-7.28,8.54-10.83,3.36-3.54,7.4-6.72,12.1-9.55,4.71-2.82,10.13-5.11,16.27-6.86,6.14-1.75,13.11-2.62,20.91-2.62,8.79,0,16.45,1.1,23,3.3Z"/>
</svg>